# xmcd
# Track frame offsets:
# 150
# 19520
# 31928
# 49983
# 67424
# 85800
# 95629
# 108535
# 121051
# 139801
# 151729
# 165528
# 178354
# 196420
# 207241
# 219745
# 235568
# 247197
# 261220
# 272624
# 287543
# 313719
# 325869
# 335848
#
# Disc length: 4790 seconds
# Revision: 0
# Processed by: cddbd v1.5.2PL0 Copyright (c) Steve Scherf et al.
# Submitted via: VisiTrax 2.11.2.271 - For more info visit www.synapsa.com
#
DISCID=6912b418
DTITLE=Bobby Bare - Hard Time Hungrys-The Winner and Other Losers
DYEAR=2012
DGENRE=Country
TTITLE0=Hard Time Hungrys
TTITLE1=The farmer Feeds Us All
TTITLE2=Alimony
TTITLE3=Two For A Dollar
TTITLE4=Back home In Huntsville Again
TTITLE5=Daddy's Been Around The House Too Long
TTITLE6=Warm And Free
TTITLE7=Able Bodied Man
TTITLE8=$100,000 In Pennies
TTITLE9=Bottles And Boxes
TTITLE10=truck Driver, Truck Driver
TTITLE11=The Unemployment Line
TTITLE12=Climbin' The Ladder And Climbin' The Wall
TTITLE13=Baby Wants To Boogie
TTITLE14=Keeping Rosie Proud Of Me
TTITLE15=Bald Headed Woman
TTITLE16=Vince
TTITLE17=Lost In Austin
TTITLE18=Put A Little Lovin' On Me
TTITLE19=Yes, Mr. Rodgers
TTITLE20=Brian Hennessy
TTITLE21=My Better Half
TTITLE22=Dropkick Me, Jesus
TTITLE23=The Winner
EXTD=
EXTT0=
EXTT1=
EXTT2=
EXTT3=
EXTT4=
EXTT5=
EXTT6=
EXTT7=
EXTT8=
EXTT9=
EXTT10=
EXTT11=
EXTT12=
EXTT13=
EXTT14=
EXTT15=
EXTT16=
EXTT17=
EXTT18=
EXTT19=
EXTT20=
EXTT21=
EXTT22=
EXTT23=
PLAYORDER=
